<svg id="svg" version="1.1" xmlns="http://www.w3.org/2000/svg" xmlns:xlink="http://www.w3.org/1999/xlink" width="400" height="120.66666666666667" viewBox="0, 0, 400,120.66666666666667"><g id="svgg"><path id="path0" d="M245.281 33.467 L 244.833 33.935 244.833 62.935 L 244.833 91.935 245.383 92.467 L 245.933 93.000 248.516 93.000 L 251.099 93.000 251.716 92.368 L 252.333 91.736 252.333 62.901 L 252.333 34.065 251.784 33.533 L 251.234 33.000 248.482 33.000 L 245.729 33.000 245.281 33.467 M369.448 33.467 L 369.000 33.935 369.000 43.305 L 369.000 52.674 367.692 51.757 C 362.360 48.022,354.233 47.779,348.461 51.183 C 342.445 54.731,340.334 59.921,340.334 71.167 C 340.334 81.884,342.066 86.585,347.429 90.428 C 353.194 94.560,363.164 94.502,368.208 90.305 L 369.000 89.647 369.000 90.791 C 369.000 91.866,369.033 91.967,369.550 92.467 L 370.099 93.000 372.684 93.000 L 375.268 93.000 375.801 92.450 L 376.333 91.901 376.333 62.898 L 376.333 33.896 375.866 33.448 L 375.398 33.000 372.647 33.000 L 369.896 33.000 369.448 33.467 M216.500 35.014 C 206.503 36.288,200.186 43.141,198.383 54.667 C 198.001 57.110,197.940 70.199,198.299 72.833 C 200.305 87.576,208.947 94.743,223.429 93.677 C 229.793 93.208,234.697 91.263,239.372 87.355 C 240.771 86.184,240.828 86.489,238.683 83.634 C 236.330 80.505,236.076 80.416,233.980 81.995 C 224.801 88.912,212.389 87.652,208.110 79.368 C 206.092 75.460,205.750 73.262,205.750 64.167 C 205.750 54.390,206.365 51.451,209.261 47.393 C 213.857 40.952,224.446 40.198,233.034 45.700 C 234.246 46.476,234.362 46.516,235.096 46.406 L 235.873 46.289 237.459 43.874 C 239.398 40.919,239.389 41.223,237.583 39.911 C 232.153 35.963,223.968 34.062,216.500 35.014 M184.699 36.216 L 184.167 36.766 184.167 57.621 C 184.167 81.734,184.180 81.506,182.590 83.930 C 180.401 87.265,173.164 87.380,168.343 84.155 L 166.885 83.180 166.073 83.382 L 165.261 83.583 163.777 86.074 C 162.075 88.931,162.070 88.662,163.848 90.042 C 166.983 92.476,171.225 93.708,176.500 93.717 C 185.114 93.731,189.843 90.023,191.441 82.000 C 191.695 80.723,191.729 78.427,191.786 58.683 L 191.849 36.782 191.309 36.225 L 190.768 35.667 188.000 35.667 L 185.232 35.667 184.699 36.216 M92.208 36.115 C 92.369 36.157,92.631 36.157,92.792 36.115 C 92.952 36.073,92.821 36.039,92.500 36.039 C 92.179 36.039,92.048 36.073,92.208 36.115 M272.644 49.012 C 264.451 50.215,259.221 55.716,258.013 64.399 C 257.683 66.771,257.782 76.501,258.158 78.692 C 259.808 88.296,266.219 93.504,276.387 93.499 C 286.133 93.495,292.561 88.545,294.402 79.628 C 295.381 74.886,295.168 65.218,293.992 61.000 C 291.555 52.265,283.043 47.485,272.644 49.012 M300.866 50.050 L 300.333 50.599 300.334 65.091 C 300.336 83.615,300.460 84.522,303.542 88.416 C 308.402 94.555,319.569 95.403,326.292 90.143 L 327.333 89.328 327.333 90.631 C 327.333 91.887,327.354 91.954,327.883 92.467 L 328.433 93.000 331.017 93.000 L 333.601 93.000 334.134 92.450 L 334.667 91.901 334.667 71.168 L 334.667 50.435 334.219 49.967 L 333.771 49.500 331.085 49.500 L 328.399 49.500 327.870 50.046 L 327.341 50.592 327.295 64.671 C 327.245 80.407,327.331 79.257,326.035 81.406 C 323.985 84.805,320.856 86.418,316.333 86.409 C 311.487 86.399,309.422 85.039,308.229 81.074 C 307.955 80.161,307.927 78.923,307.876 65.335 L 307.821 50.587 307.295 50.043 L 306.768 49.500 304.083 49.500 L 301.399 49.500 300.866 50.050 M361.450 56.084 C 364.891 57.078,368.107 60.243,368.820 63.338 C 369.121 64.643,369.052 77.763,368.736 79.299 C 367.762 84.032,364.090 86.583,358.250 86.583 C 352.580 86.583,349.101 83.561,348.089 77.755 C 347.729 75.693,347.726 66.661,348.084 64.608 C 349.281 57.740,354.862 54.181,361.450 56.084 M280.417 56.178 C 285.347 57.839,287.280 61.592,287.456 69.845 C 287.588 75.994,287.176 78.901,285.796 81.552 C 282.142 88.575,270.191 88.433,266.780 81.327 C 264.747 77.090,264.738 65.255,266.765 61.041 C 267.949 58.580,270.216 56.755,273.036 55.993 C 274.811 55.514,278.738 55.612,280.417 56.178 M120.000 60.391 C 120.000 60.514,119.850 60.751,119.667 60.917 C 119.483 61.083,119.333 61.352,119.333 61.516 C 119.333 61.680,119.258 61.860,119.167 61.917 C 119.075 61.973,119.000 62.269,119.000 62.573 C 119.000 62.877,118.886 63.221,118.746 63.336 C 118.607 63.452,118.532 63.672,118.580 63.824 C 118.629 63.976,118.558 64.247,118.423 64.425 C 118.288 64.604,118.175 64.989,118.172 65.282 C 118.169 65.574,118.092 65.860,118.000 65.917 C 117.908 65.973,117.833 66.311,117.833 66.667 C 117.833 67.023,117.758 67.360,117.667 67.417 C 117.575 67.473,117.500 67.773,117.500 68.083 C 117.500 68.393,117.425 68.693,117.333 68.750 C 117.242 68.807,117.167 69.407,117.167 70.083 C 117.167 70.760,117.242 71.360,117.333 71.417 C 117.425 71.473,117.500 71.815,117.500 72.177 C 117.500 72.538,117.575 72.833,117.667 72.833 C 117.758 72.833,117.833 72.947,117.833 73.086 C 117.833 73.765,119.264 75.377,120.282 75.845 C 120.666 76.021,121.026 76.241,121.083 76.333 C 121.140 76.425,121.402 76.500,121.667 76.500 C 121.931 76.500,122.193 76.575,122.250 76.667 C 122.307 76.758,122.986 76.833,123.760 76.833 C 124.587 76.833,125.167 76.902,125.167 77.000 C 125.167 77.105,126.306 77.167,128.250 77.167 C 130.194 77.167,131.333 77.228,131.333 77.333 C 131.333 77.429,131.853 77.500,132.558 77.500 C 133.912 77.500,134.333 77.744,134.333 78.529 C 134.333 79.348,133.941 79.486,131.328 79.584 C 130.007 79.633,128.853 79.747,128.763 79.837 C 128.669 79.931,127.350 80.000,125.643 80.000 C 123.852 80.000,122.646 80.066,122.583 80.167 C 122.527 80.258,122.114 80.333,121.667 80.333 C 121.219 80.333,120.807 80.408,120.750 80.500 C 120.693 80.592,120.466 80.667,120.245 80.667 C 120.024 80.667,119.576 80.817,119.250 81.000 C 118.924 81.183,118.513 81.333,118.338 81.333 C 118.163 81.333,117.975 81.406,117.919 81.496 C 117.864 81.585,117.560 81.781,117.243 81.931 C 116.926 82.082,116.667 82.271,116.667 82.352 C 116.667 82.434,116.531 82.500,116.365 82.500 C 116.198 82.500,115.847 82.725,115.583 83.000 C 115.320 83.275,115.023 83.500,114.923 83.500 C 114.689 83.500,112.000 86.201,112.000 86.436 C 112.000 86.534,111.852 86.749,111.670 86.913 C 111.312 87.238,110.500 88.766,110.500 89.116 C 110.500 89.236,110.425 89.333,110.333 89.333 C 110.242 89.333,110.167 89.479,110.167 89.657 C 110.167 89.835,110.092 90.027,110.000 90.083 C 109.908 90.140,109.833 90.345,109.833 90.538 C 109.833 90.732,109.712 91.025,109.564 91.189 C 109.367 91.406,109.324 91.647,109.405 92.077 L 109.515 92.668 127.466 92.626 L 145.417 92.583 145.422 92.227 C 145.425 92.032,145.538 91.739,145.672 91.577 C 146.031 91.144,146.037 79.530,145.679 79.098 C 145.548 78.941,145.433 78.616,145.422 78.376 C 145.412 78.136,145.312 77.910,145.202 77.873 C 145.091 77.836,145.000 77.591,145.000 77.329 C 145.000 77.067,144.925 76.807,144.833 76.750 C 144.742 76.693,144.667 76.426,144.667 76.157 C 144.667 75.887,144.592 75.667,144.500 75.667 C 144.408 75.667,144.333 75.517,144.333 75.333 C 144.333 75.150,144.258 75.000,144.167 75.000 C 144.075 75.000,144.000 74.848,144.000 74.661 C 144.000 74.475,143.883 74.278,143.740 74.223 C 143.598 74.168,143.521 74.018,143.571 73.889 C 143.621 73.760,143.550 73.611,143.414 73.559 C 143.278 73.507,143.167 73.327,143.167 73.159 C 143.167 72.991,143.092 72.807,143.000 72.750 C 142.908 72.693,142.833 72.531,142.833 72.389 C 142.833 72.247,142.649 71.987,142.424 71.810 C 142.199 71.633,142.052 71.391,142.098 71.272 C 142.143 71.154,141.990 70.914,141.757 70.739 C 141.524 70.564,141.333 70.323,141.333 70.204 C 141.333 69.957,136.739 65.333,136.492 65.333 C 136.403 65.333,136.108 65.135,135.835 64.892 C 135.340 64.451,135.062 64.273,134.042 63.743 C 133.744 63.589,133.500 63.396,133.500 63.314 C 133.500 63.233,133.350 63.167,133.167 63.167 C 132.983 63.167,132.833 63.092,132.833 63.000 C 132.833 62.908,132.688 62.833,132.510 62.833 C 132.332 62.833,132.140 62.758,132.083 62.667 C 132.027 62.575,131.802 62.500,131.583 62.500 C 131.365 62.500,131.143 62.430,131.090 62.344 C 130.932 62.088,129.978 61.667,129.558 61.667 C 129.343 61.667,129.167 61.592,129.167 61.500 C 129.167 61.408,128.946 61.333,128.677 61.333 C 128.407 61.333,128.140 61.258,128.083 61.167 C 128.027 61.075,127.689 61.000,127.333 61.000 C 126.977 61.000,126.640 60.925,126.583 60.833 C 126.527 60.742,125.969 60.667,125.344 60.667 C 124.537 60.667,124.147 60.594,124.000 60.417 C 123.713 60.070,120.000 60.046,120.000 60.391 M101.792 76.618 C 101.998 76.657,102.335 76.657,102.542 76.618 C 102.748 76.578,102.579 76.545,102.167 76.545 C 101.754 76.545,101.585 76.578,101.792 76.618 M80.708 76.958 C 82.060 76.986,84.273 76.986,85.625 76.958 C 86.977 76.930,85.871 76.907,83.167 76.907 C 80.462 76.907,79.356 76.930,80.708 76.958 M86.125 80.125 C 88.073 80.151,91.260 80.151,93.208 80.125 C 95.156 80.098,93.563 80.076,89.667 80.076 C 85.771 80.076,84.177 80.098,86.125 80.125 " stroke="none" fill="#453150" fill-rule="evenodd"></path><path id="path1" d="M117.500 59.813 C 117.500 59.985,117.388 60.219,117.250 60.333 C 117.112 60.447,117.000 60.677,117.000 60.844 C 117.000 61.011,116.925 61.193,116.833 61.250 C 116.742 61.307,116.667 61.500,116.667 61.679 C 116.667 61.858,116.592 62.154,116.500 62.336 C 116.408 62.518,116.258 62.816,116.167 62.998 C 116.075 63.180,116.000 63.428,116.000 63.550 C 116.000 63.671,115.813 64.160,115.583 64.635 C 115.354 65.110,115.167 65.607,115.167 65.739 C 115.167 65.872,115.092 66.027,115.000 66.083 C 114.908 66.140,114.833 66.317,114.833 66.478 C 114.833 66.819,113.915 68.686,113.375 69.443 C 113.169 69.732,113.000 70.016,113.000 70.075 C 113.000 70.411,110.129 73.268,108.796 74.258 C 107.582 75.160,104.480 76.667,103.838 76.667 C 103.663 76.667,103.473 76.742,103.417 76.833 C 103.353 76.937,101.779 77.000,99.250 77.000 C 96.721 77.000,95.147 77.063,95.083 77.167 C 95.017 77.274,91.981 77.333,86.520 77.333 C 76.786 77.333,75.667 77.473,75.667 78.687 C 75.667 79.540,77.432 79.672,90.250 79.776 C 96.415 79.827,101.320 79.932,101.408 80.016 C 101.495 80.099,101.815 80.167,102.119 80.167 C 102.423 80.167,102.801 80.233,102.961 80.315 C 103.120 80.397,103.604 80.632,104.036 80.838 C 104.873 81.237,106.099 82.423,106.531 83.250 C 107.226 84.579,107.250 84.708,107.250 87.083 C 107.250 88.595,107.182 89.533,107.061 89.683 C 106.958 89.811,106.832 90.179,106.782 90.500 C 106.613 91.580,106.458 92.082,106.202 92.375 C 105.963 92.650,106.039 92.667,107.558 92.667 L 109.167 92.667 109.167 91.998 C 109.167 91.630,109.233 91.199,109.315 91.039 C 109.678 90.330,110.334 88.842,110.337 88.719 C 110.339 88.644,110.487 88.396,110.667 88.167 C 110.846 87.938,110.994 87.660,110.996 87.550 C 110.998 87.440,111.188 87.148,111.417 86.901 C 111.646 86.654,111.833 86.383,111.833 86.299 C 111.833 86.122,114.619 83.334,114.797 83.333 C 114.863 83.332,115.156 83.107,115.449 82.833 C 115.742 82.558,116.064 82.333,116.165 82.333 C 116.265 82.333,116.512 82.180,116.713 81.993 C 117.173 81.564,117.960 81.167,118.349 81.167 C 118.513 81.167,118.693 81.092,118.750 81.000 C 118.807 80.908,118.999 80.833,119.177 80.833 C 119.354 80.833,119.500 80.758,119.500 80.667 C 119.500 80.575,119.689 80.500,119.919 80.500 C 120.149 80.500,120.468 80.433,120.627 80.351 C 121.200 80.057,122.968 79.845,125.797 79.732 C 127.381 79.669,128.717 79.553,128.765 79.475 C 128.814 79.397,129.917 79.331,131.218 79.328 C 133.718 79.322,134.167 79.204,134.167 78.549 C 134.167 77.935,133.646 77.667,132.455 77.667 C 131.849 77.667,131.317 77.608,131.273 77.537 C 131.229 77.466,129.818 77.385,128.138 77.358 C 126.458 77.330,125.058 77.239,125.028 77.154 C 124.997 77.069,124.345 77.000,123.579 77.000 C 122.813 77.000,122.140 76.925,122.083 76.833 C 122.027 76.742,121.842 76.667,121.672 76.667 C 120.782 76.667,118.000 74.578,118.000 73.910 C 118.000 73.776,117.925 73.667,117.833 73.667 C 117.742 73.667,117.667 73.529,117.667 73.361 C 117.667 73.193,117.613 73.002,117.547 72.936 C 117.016 72.405,116.854 69.534,117.272 68.050 C 117.422 67.518,117.580 66.802,117.623 66.457 C 117.666 66.113,117.769 65.790,117.851 65.739 C 117.933 65.688,118.000 65.425,118.000 65.155 C 118.000 64.884,118.065 64.532,118.144 64.373 C 118.363 63.934,118.691 62.968,118.779 62.500 C 118.876 61.991,119.142 61.392,119.527 60.820 L 119.816 60.390 119.185 60.112 C 118.838 59.959,118.430 59.833,118.277 59.833 C 118.125 59.833,118.000 59.758,118.000 59.667 C 118.000 59.575,117.888 59.500,117.750 59.500 C 117.612 59.500,117.500 59.641,117.500 59.813 " stroke="none" fill="#f9f8f7" fill-rule="evenodd"></path><path id="path2" d="M117.335 59.542 C 117.262 60.035,117.249 60.076,117.099 60.333 C 116.985 60.528,117.017 60.524,117.241 60.313 C 117.415 60.149,117.499 59.887,117.454 59.646 C 117.401 59.369,117.366 59.338,117.335 59.542 M116.700 61.200 C 116.590 61.310,116.500 61.536,116.500 61.702 C 116.500 61.869,116.425 62.154,116.333 62.336 C 116.242 62.518,116.092 62.816,116.000 62.998 C 115.908 63.180,115.833 63.440,115.833 63.576 C 115.833 63.712,115.683 64.090,115.500 64.417 C 115.317 64.743,115.171 65.102,115.175 65.213 C 115.187 65.479,116.000 63.839,116.000 63.550 C 116.000 63.335,116.075 63.149,116.474 62.377 C 116.580 62.172,116.667 61.869,116.667 61.702 C 116.667 61.536,116.757 61.310,116.867 61.200 C 116.977 61.090,117.029 61.000,116.983 61.000 C 116.938 61.000,116.810 61.090,116.700 61.200 M118.356 63.865 C 118.344 64.112,118.258 64.360,118.167 64.417 C 118.075 64.473,118.000 64.763,118.000 65.060 C 118.000 65.357,117.919 65.681,117.820 65.780 C 117.721 65.879,117.673 66.175,117.712 66.438 L 117.783 66.917 117.808 66.385 C 117.822 66.092,117.908 65.807,118.000 65.750 C 118.092 65.693,118.167 65.404,118.167 65.107 C 118.167 64.810,118.248 64.485,118.347 64.386 C 118.447 64.286,118.495 64.028,118.453 63.811 C 118.383 63.442,118.377 63.445,118.356 63.865 M114.819 66.103 C 114.712 66.367,114.569 66.733,114.501 66.917 C 114.433 67.100,114.147 67.720,113.866 68.295 C 113.584 68.870,113.418 69.301,113.496 69.252 C 113.705 69.123,114.833 66.792,114.833 66.490 C 114.833 66.349,114.922 66.145,115.031 66.036 C 115.139 65.928,115.179 65.790,115.120 65.731 C 115.061 65.672,114.925 65.840,114.819 66.103 M117.186 68.278 C 117.175 68.385,117.118 68.610,117.059 68.778 C 116.975 69.015,116.997 69.041,117.158 68.893 C 117.272 68.788,117.329 68.563,117.285 68.393 C 117.241 68.223,117.197 68.171,117.186 68.278 M110.629 72.422 C 109.553 73.473,108.560 74.333,108.420 74.333 C 108.281 74.333,108.167 74.400,108.167 74.483 C 108.167 74.565,107.523 74.946,106.737 75.330 C 105.950 75.715,105.338 76.061,105.377 76.099 C 105.480 76.203,107.919 74.922,108.650 74.381 C 110.005 73.377,112.996 70.468,112.635 70.505 C 112.606 70.508,111.704 71.371,110.629 72.422 M117.458 72.842 C 117.573 72.966,117.667 73.202,117.667 73.367 C 117.667 73.532,117.742 73.667,117.833 73.667 C 117.925 73.667,118.006 73.835,118.013 74.042 C 118.020 74.248,118.065 74.320,118.112 74.202 C 118.215 73.947,117.744 72.896,117.454 72.733 C 117.300 72.646,117.301 72.673,117.458 72.842 M104.417 76.333 C 104.360 76.425,104.135 76.500,103.917 76.500 C 103.698 76.500,103.473 76.575,103.417 76.667 C 103.352 76.771,101.752 76.833,99.167 76.833 C 96.582 76.833,94.981 76.896,94.917 77.000 C 94.850 77.108,91.834 77.167,86.415 77.167 C 77.608 77.167,76.649 77.233,75.914 77.891 C 74.453 79.198,76.029 79.859,80.489 79.807 L 82.750 79.781 80.311 79.663 C 75.937 79.449,74.887 79.079,75.958 78.125 C 76.778 77.396,77.613 77.333,86.520 77.333 C 91.981 77.333,95.017 77.274,95.083 77.167 C 95.147 77.063,96.721 77.000,99.250 77.000 C 101.779 77.000,103.353 76.937,103.417 76.833 C 103.473 76.742,103.684 76.664,103.885 76.661 C 104.339 76.653,105.225 76.181,104.802 76.173 C 104.646 76.169,104.473 76.242,104.417 76.333 M120.894 76.418 C 121.157 76.555,121.498 76.667,121.652 76.667 C 121.807 76.667,122.012 76.745,122.107 76.841 C 122.210 76.943,122.826 76.991,123.599 76.958 L 124.917 76.900 123.552 76.867 C 122.801 76.848,122.140 76.758,122.083 76.667 C 122.027 76.575,121.802 76.500,121.583 76.500 C 121.365 76.500,121.140 76.425,121.083 76.333 C 121.027 76.242,120.854 76.167,120.698 76.168 C 120.520 76.168,120.592 76.260,120.894 76.418 M125.000 77.208 C 125.000 77.277,126.069 77.320,127.375 77.303 C 129.804 77.273,129.520 77.206,126.625 77.127 C 125.731 77.103,124.999 77.140,125.000 77.208 M133.858 77.917 C 134.009 78.100,134.169 78.400,134.213 78.583 C 134.292 78.904,134.295 78.903,134.314 78.567 C 134.325 78.375,134.165 78.075,133.958 77.901 C 133.586 77.586,133.586 77.586,133.858 77.917 M133.750 79.167 C 133.689 79.265,132.676 79.333,131.273 79.333 C 129.968 79.333,128.828 79.405,128.740 79.493 C 128.652 79.582,127.831 79.678,126.915 79.709 L 125.250 79.764 126.948 79.798 C 127.940 79.819,128.690 79.764,128.750 79.667 C 128.811 79.569,129.827 79.498,131.218 79.495 C 133.033 79.491,133.659 79.433,133.907 79.245 C 134.085 79.110,134.145 79.000,134.042 79.000 C 133.938 79.000,133.807 79.075,133.750 79.167 M98.917 80.018 C 101.518 80.152,102.624 80.296,102.761 80.518 C 102.812 80.600,102.996 80.667,103.171 80.667 C 103.620 80.667,104.632 81.256,105.417 81.973 L 106.083 82.583 105.442 81.893 C 105.089 81.513,104.451 81.036,104.025 80.833 C 103.599 80.630,103.120 80.397,102.961 80.315 C 102.801 80.233,102.412 80.167,102.095 80.167 C 101.779 80.167,101.473 80.092,101.417 80.000 C 101.354 79.899,100.382 79.846,98.948 79.866 L 96.583 79.899 98.917 80.018 M118.750 81.000 C 118.693 81.092,118.510 81.167,118.343 81.167 C 117.868 81.167,116.500 81.961,116.500 82.236 C 116.500 82.321,116.669 82.247,116.875 82.071 C 117.376 81.642,117.943 81.333,118.229 81.333 C 118.357 81.333,118.677 81.221,118.939 81.084 C 119.241 80.927,119.313 80.835,119.135 80.834 C 118.980 80.834,118.807 80.908,118.750 81.000 M115.806 82.458 C 115.775 82.527,115.500 82.790,115.196 83.042 C 114.891 83.294,114.703 83.497,114.779 83.494 C 115.005 83.483,116.267 82.339,116.056 82.336 C 115.949 82.334,115.836 82.390,115.806 82.458 M106.333 83.218 C 106.333 83.373,106.408 83.500,106.500 83.500 C 106.592 83.500,106.667 83.635,106.667 83.800 C 106.667 83.965,106.760 84.194,106.875 84.308 C 107.164 84.598,107.160 89.407,106.870 89.697 C 106.758 89.808,106.667 90.143,106.667 90.440 C 106.667 90.737,106.592 91.027,106.500 91.083 C 106.408 91.140,106.333 91.399,106.333 91.659 C 106.333 91.925,106.224 92.173,106.083 92.227 C 105.946 92.280,105.833 92.412,105.833 92.521 C 105.833 92.642,105.955 92.608,106.149 92.432 C 106.450 92.160,106.564 91.812,106.778 90.500 C 106.830 90.179,106.958 89.811,107.061 89.683 C 107.336 89.342,107.319 84.585,107.042 84.308 C 106.927 84.194,106.831 83.984,106.828 83.842 C 106.820 83.454,106.333 82.840,106.333 83.218 M111.019 87.391 C 111.009 87.560,110.842 87.921,110.648 88.192 C 110.455 88.464,110.333 88.722,110.378 88.767 C 110.522 88.910,111.185 87.630,111.110 87.352 C 111.053 87.136,111.035 87.143,111.019 87.391 M109.513 90.615 C 109.506 90.816,109.425 91.027,109.333 91.083 C 109.242 91.140,109.179 91.538,109.195 91.968 C 109.222 92.741,109.223 92.742,109.282 92.083 C 109.315 91.717,109.424 91.255,109.524 91.058 C 109.624 90.861,109.665 90.598,109.616 90.475 C 109.564 90.345,109.521 90.405,109.513 90.615 " stroke="none" fill="#b08d9f" fill-rule="evenodd"></path><path id="path3" d="M85.042 35.942 C 84.453 36.185,85.133 36.250,88.250 36.250 C 90.454 36.250,91.647 36.191,91.611 36.083 C 91.554 35.911,85.435 35.780,85.042 35.942 M82.750 36.229 C 82.318 36.545,82.692 36.720,83.506 36.582 C 84.119 36.479,84.432 36.182,83.958 36.154 C 83.844 36.147,83.593 36.112,83.400 36.076 C 83.208 36.040,82.915 36.109,82.750 36.229 M92.625 36.119 C 92.373 36.158,92.167 36.254,92.167 36.334 C 92.167 36.509,93.637 36.752,93.787 36.602 C 93.889 36.500,93.335 35.990,93.167 36.030 C 93.121 36.041,92.877 36.081,92.625 36.119 M81.065 36.680 L 80.583 36.998 81.028 36.999 C 81.839 37.001,82.309 36.654,81.774 36.449 C 81.649 36.401,81.331 36.505,81.065 36.680 M94.490 36.512 C 94.282 36.646,94.284 36.689,94.500 36.831 C 94.728 36.980,95.981 37.082,95.819 36.938 C 95.477 36.632,94.694 36.381,94.490 36.512 M79.667 37.083 C 79.667 37.271,79.784 37.340,80.042 37.303 C 80.248 37.274,80.417 37.175,80.417 37.083 C 80.417 36.992,80.248 36.893,80.042 36.863 C 79.784 36.827,79.667 36.895,79.667 37.083 M96.000 37.072 C 96.000 37.242,96.150 37.333,96.431 37.333 C 96.953 37.333,96.896 36.942,96.362 36.863 C 96.122 36.828,96.000 36.898,96.000 37.072 M78.583 37.333 C 78.527 37.425,78.268 37.500,78.008 37.500 C 77.746 37.500,77.494 37.609,77.442 37.745 C 77.298 38.118,77.622 38.217,78.037 37.926 C 78.241 37.784,78.578 37.667,78.787 37.667 C 79.013 37.667,79.167 37.566,79.167 37.417 C 79.167 37.136,78.742 37.076,78.583 37.333 M97.167 37.417 C 97.167 37.571,97.323 37.667,97.578 37.667 C 97.875 37.667,97.963 37.597,97.894 37.417 C 97.841 37.279,97.656 37.167,97.482 37.167 C 97.309 37.167,97.167 37.279,97.167 37.417 M98.238 37.686 C 98.151 37.827,98.814 38.241,98.935 38.121 C 98.975 38.081,98.965 37.937,98.913 37.802 C 98.813 37.541,98.374 37.466,98.238 37.686 M76.610 38.073 C 76.557 38.213,76.409 38.288,76.283 38.240 C 76.157 38.191,75.957 38.267,75.840 38.409 C 75.722 38.551,75.485 38.667,75.313 38.667 C 75.141 38.667,75.000 38.742,75.000 38.833 C 75.000 38.925,74.869 39.002,74.708 39.004 C 74.548 39.006,74.229 39.154,74.000 39.333 C 73.771 39.513,73.484 39.661,73.363 39.663 C 73.242 39.665,73.038 39.760,72.911 39.875 C 72.363 40.366,71.412 40.969,70.958 41.113 C 70.798 41.164,70.667 41.268,70.667 41.345 C 70.667 41.421,70.348 41.704,69.958 41.972 C 69.569 42.240,68.824 42.863,68.304 43.355 C 67.783 43.847,67.258 44.335,67.137 44.439 C 66.862 44.675,65.116 46.617,64.714 47.133 C 64.551 47.344,64.248 47.719,64.042 47.966 C 63.836 48.214,63.667 48.480,63.667 48.557 C 63.667 48.634,63.404 49.004,63.083 49.379 C 62.762 49.753,62.500 50.159,62.500 50.280 C 62.500 50.401,62.444 50.501,62.375 50.501 C 62.225 50.503,61.833 51.310,61.833 51.617 C 61.833 51.736,61.775 51.833,61.703 51.833 C 61.574 51.833,61.108 52.818,61.140 53.026 C 61.149 53.086,61.046 53.226,60.911 53.338 C 60.777 53.449,60.667 53.677,60.667 53.844 C 60.667 54.011,60.592 54.193,60.500 54.250 C 60.408 54.307,60.333 54.499,60.333 54.677 C 60.333 54.854,60.258 55.000,60.167 55.000 C 60.075 55.000,60.000 55.195,60.000 55.432 L 60.000 55.865 59.150 55.254 C 58.683 54.918,58.262 54.682,58.215 54.729 C 58.168 54.776,57.857 54.643,57.523 54.433 C 57.190 54.224,56.729 54.009,56.500 53.956 C 56.271 53.903,55.915 53.808,55.708 53.744 C 55.426 53.657,55.333 53.694,55.333 53.897 C 55.333 54.075,55.478 54.167,55.758 54.167 C 56.188 54.167,59.257 55.575,59.427 55.850 C 59.732 56.344,60.833 55.199,60.833 54.388 C 60.833 54.266,62.374 51.153,62.716 50.583 C 63.638 49.049,64.880 47.369,66.083 46.029 C 67.916 43.989,71.424 41.000,71.988 41.000 C 72.086 41.000,72.167 40.925,72.167 40.833 C 72.167 40.742,72.240 40.667,72.330 40.667 C 72.420 40.667,72.889 40.420,73.372 40.119 C 74.271 39.557,75.204 39.088,76.461 38.563 C 76.852 38.400,77.148 38.193,77.117 38.102 C 77.024 37.823,76.713 37.805,76.610 38.073 M99.368 37.952 C 99.128 38.042,99.404 38.500,99.698 38.500 C 99.914 38.500,101.949 39.479,102.700 39.945 C 103.040 40.155,103.355 40.266,103.402 40.190 C 103.495 40.040,102.825 39.518,102.167 39.228 C 100.948 38.691,100.726 38.578,100.457 38.355 C 100.296 38.222,100.116 38.162,100.057 38.221 C 99.998 38.280,99.867 38.225,99.766 38.100 C 99.666 37.974,99.486 37.908,99.368 37.952 M103.688 40.305 C 103.722 40.404,104.319 40.883,105.015 41.368 C 109.344 44.386,112.380 47.909,114.776 52.695 C 115.174 53.490,115.500 54.222,115.500 54.322 C 115.500 54.423,115.575 54.654,115.667 54.836 C 115.758 55.018,115.908 55.316,116.000 55.498 C 116.092 55.680,116.167 55.943,116.167 56.083 C 116.167 56.223,116.238 56.468,116.325 56.627 C 116.903 57.688,117.289 59.933,116.951 60.271 C 116.886 60.336,116.833 60.526,116.833 60.694 C 116.833 60.862,116.758 61.000,116.667 61.000 C 116.575 61.000,116.500 61.084,116.500 61.187 C 116.500 61.316,116.577 61.310,116.750 61.167 C 116.888 61.053,117.000 60.831,117.000 60.674 C 117.000 60.517,117.052 60.337,117.115 60.273 C 117.179 60.210,117.253 59.991,117.281 59.787 C 117.309 59.583,117.370 59.253,117.416 59.052 C 117.463 58.851,117.426 58.641,117.334 58.584 C 117.242 58.527,117.167 58.229,117.167 57.921 C 117.167 57.613,117.094 57.336,117.005 57.306 C 116.917 57.275,116.826 57.006,116.803 56.708 C 116.781 56.410,116.703 56.167,116.631 56.167 C 116.559 56.167,116.500 55.988,116.500 55.770 C 116.500 55.552,116.388 55.281,116.250 55.167 C 116.112 55.053,116.000 54.821,116.000 54.651 C 116.000 54.482,115.850 54.076,115.667 53.750 C 115.483 53.424,115.333 53.046,115.333 52.912 C 115.333 52.777,115.270 52.667,115.193 52.667 C 115.116 52.667,114.952 52.359,114.827 51.982 C 114.703 51.606,114.504 51.260,114.384 51.214 C 114.265 51.169,114.167 50.968,114.167 50.769 C 114.167 50.570,114.017 50.299,113.833 50.167 C 113.650 50.035,113.500 49.793,113.500 49.630 C 113.500 49.467,113.444 49.331,113.375 49.328 C 113.306 49.325,112.875 48.789,112.417 48.138 C 111.429 46.735,109.911 45.014,108.897 44.149 C 108.725 44.001,108.466 43.739,108.323 43.565 C 108.180 43.392,107.811 43.063,107.503 42.833 C 107.196 42.604,106.807 42.271,106.639 42.094 C 106.471 41.916,106.333 41.826,106.333 41.894 C 106.333 41.962,106.156 41.826,105.939 41.592 C 105.722 41.358,105.460 41.167,105.356 41.167 C 105.252 41.167,105.167 41.092,105.167 41.000 C 105.167 40.908,105.054 40.833,104.917 40.833 C 104.779 40.833,104.667 40.767,104.667 40.686 C 104.667 40.605,104.535 40.493,104.375 40.436 C 104.215 40.379,103.980 40.286,103.854 40.229 C 103.726 40.171,103.653 40.205,103.688 40.305 M49.333 53.583 C 49.159 53.794,49.189 53.833,49.521 53.831 C 50.228 53.828,51.167 53.627,51.167 53.478 C 51.167 53.221,49.558 53.313,49.333 53.583 M52.872 53.532 C 52.918 53.672,53.322 53.770,54.005 53.807 C 54.906 53.855,55.036 53.828,54.870 53.627 C 54.605 53.308,52.768 53.221,52.872 53.532 M47.965 53.854 C 47.931 53.957,47.700 54.042,47.451 54.042 C 47.203 54.042,47.000 54.107,47.000 54.188 C 47.000 54.268,46.813 54.333,46.583 54.333 C 46.354 54.333,46.167 54.408,46.167 54.500 C 46.167 54.592,46.087 54.667,45.989 54.667 C 45.891 54.667,45.565 54.854,45.265 55.083 C 44.964 55.313,44.670 55.500,44.611 55.500 C 44.551 55.500,44.308 55.669,44.071 55.875 C 43.834 56.081,43.617 56.212,43.590 56.167 C 43.562 56.121,43.199 56.440,42.781 56.875 C 42.364 57.310,41.961 57.667,41.885 57.667 C 41.810 57.667,41.656 57.873,41.543 58.125 C 41.365 58.523,41.139 58.834,40.337 59.785 C 40.243 59.895,40.167 60.102,40.167 60.243 C 40.167 60.384,40.092 60.500,40.000 60.500 C 39.908 60.500,39.833 60.598,39.833 60.719 C 39.833 60.839,39.669 61.270,39.468 61.677 C 39.268 62.084,39.084 62.526,39.061 62.660 C 39.038 62.793,38.944 63.056,38.852 63.243 C 38.489 63.984,38.332 67.361,38.582 69.042 C 38.691 69.772,38.673 69.833,38.350 69.833 C 38.158 69.833,38.000 69.913,38.000 70.011 C 38.000 70.109,37.869 70.148,37.708 70.098 C 37.548 70.048,37.304 70.082,37.167 70.173 C 36.991 70.290,37.238 70.326,38.000 70.294 C 39.050 70.251,39.082 70.237,39.027 69.833 C 38.830 68.391,38.871 64.696,39.090 64.083 C 39.221 63.717,39.329 63.252,39.331 63.052 C 39.332 62.851,39.408 62.640,39.500 62.583 C 39.592 62.527,39.667 62.342,39.667 62.174 C 39.667 61.838,40.551 60.073,40.929 59.654 C 41.060 59.509,41.167 59.314,41.167 59.220 C 41.167 58.381,45.311 55.163,47.125 54.595 C 47.331 54.530,47.500 54.408,47.500 54.322 C 47.500 54.237,47.762 54.167,48.083 54.167 C 48.491 54.167,48.667 54.091,48.667 53.917 C 48.667 53.628,48.059 53.574,47.965 53.854 M119.042 61.789 C 118.927 62.033,118.833 62.428,118.833 62.667 C 118.833 62.905,118.740 63.205,118.625 63.334 C 118.448 63.532,118.460 63.534,118.708 63.347 C 118.879 63.218,119.000 62.905,119.000 62.596 C 119.000 62.305,119.083 61.983,119.185 61.881 C 119.287 61.779,119.344 61.617,119.310 61.520 C 119.277 61.423,119.156 61.544,119.042 61.789 M115.375 64.309 C 115.169 64.740,115.000 65.218,115.000 65.370 C 115.000 65.522,114.925 65.693,114.833 65.750 C 114.742 65.807,114.667 65.938,114.667 66.042 C 114.667 66.347,115.156 65.611,115.161 65.297 C 115.164 65.139,115.320 64.737,115.508 64.403 C 115.695 64.069,115.826 63.735,115.799 63.660 C 115.772 63.585,115.581 63.877,115.375 64.309 M117.530 67.327 C 117.409 67.599,117.342 68.031,117.380 68.286 C 117.441 68.688,117.453 68.671,117.475 68.158 C 117.489 67.833,117.583 67.483,117.685 67.381 C 117.787 67.279,117.843 67.114,117.810 67.013 C 117.777 66.913,117.650 67.054,117.530 67.327 M117.032 70.115 C 117.014 70.774,117.075 71.360,117.167 71.417 C 117.258 71.473,117.345 71.796,117.358 72.135 C 117.380 72.680,117.391 72.695,117.455 72.265 C 117.495 71.998,117.447 71.623,117.350 71.431 C 117.252 71.240,117.148 70.596,117.118 70.000 L 117.064 68.917 117.032 70.115 M35.331 70.419 C 35.130 70.662,35.182 70.683,35.845 70.636 C 36.687 70.576,36.842 70.275,36.069 70.200 C 35.749 70.169,35.471 70.251,35.331 70.419 M110.837 72.083 L 109.091 73.917 110.913 72.131 C 111.915 71.150,112.701 70.325,112.659 70.298 C 112.617 70.271,111.798 71.075,110.837 72.083 M34.167 70.668 C 34.029 70.758,33.483 70.955,32.954 71.106 C 32.424 71.256,31.951 71.444,31.902 71.523 C 31.854 71.602,31.668 71.667,31.490 71.667 C 31.312 71.667,31.167 71.779,31.167 71.917 C 31.167 72.054,31.279 72.167,31.417 72.167 C 31.554 72.167,31.667 72.092,31.667 72.000 C 31.667 71.908,31.854 71.833,32.083 71.833 C 32.313 71.833,32.500 71.758,32.500 71.667 C 32.500 71.575,32.683 71.500,32.907 71.500 C 33.131 71.500,33.354 71.435,33.403 71.355 C 33.452 71.276,33.794 71.162,34.163 71.103 C 34.597 71.034,34.833 70.909,34.833 70.748 C 34.833 70.465,34.533 70.429,34.167 70.668 M30.500 72.167 C 30.500 72.258,30.394 72.333,30.264 72.333 C 30.134 72.333,30.001 72.412,29.969 72.509 C 29.937 72.606,29.798 72.701,29.660 72.722 C 29.120 72.801,25.167 76.126,25.167 76.501 C 25.167 76.565,24.960 76.836,24.708 77.104 C 24.017 77.839,23.333 78.786,23.333 79.011 C 23.333 79.121,23.177 79.346,22.987 79.511 C 22.796 79.677,22.622 79.935,22.600 80.086 C 22.578 80.237,22.453 80.428,22.322 80.511 C 22.191 80.594,22.148 80.663,22.228 80.664 C 22.307 80.666,22.251 80.852,22.103 81.077 C 21.954 81.303,21.833 81.604,21.833 81.746 C 21.833 81.888,21.766 82.135,21.684 82.294 C 21.260 83.114,20.968 84.010,21.053 84.230 C 21.105 84.367,21.070 84.504,20.975 84.536 C 20.339 84.748,20.375 92.667,21.012 92.667 C 21.362 92.667,21.453 92.401,21.139 92.296 C 20.264 92.005,21.056 84.182,22.186 81.961 C 22.267 81.801,22.333 81.602,22.333 81.518 C 22.333 81.377,23.176 79.836,23.812 78.815 C 25.035 76.850,27.308 74.614,29.458 73.261 C 30.946 72.324,31.278 72.000,30.750 72.000 C 30.613 72.000,30.500 72.075,30.500 72.167 M118.500 74.552 C 118.500 74.581,118.744 74.825,119.042 75.094 L 119.583 75.583 119.094 75.042 C 118.638 74.537,118.500 74.423,118.500 74.552 M104.429 76.147 C 104.378 76.229,104.130 76.336,103.877 76.386 C 103.624 76.436,103.154 76.550,102.833 76.638 L 102.250 76.799 102.782 76.816 C 103.074 76.826,103.360 76.758,103.417 76.667 C 103.473 76.575,103.688 76.500,103.893 76.500 C 104.099 76.500,104.338 76.431,104.425 76.347 C 104.512 76.264,104.771 76.161,105.000 76.120 C 105.416 76.045,105.416 76.045,104.968 76.023 C 104.721 76.010,104.479 76.066,104.429 76.147 M91.333 77.000 L 87.750 77.093 91.282 77.130 C 93.497 77.153,94.852 77.105,94.917 77.000 C 94.973 76.908,94.996 76.850,94.968 76.870 C 94.940 76.890,93.304 76.949,91.333 77.000 M76.417 77.400 C 75.498 77.806,74.892 78.898,75.366 79.291 C 76.122 79.919,77.586 80.001,87.302 79.963 L 96.750 79.927 86.917 79.827 C 77.652 79.733,76.672 79.682,75.613 79.247 C 74.849 78.932,75.714 77.736,76.943 77.406 C 77.437 77.273,77.588 77.187,77.333 77.184 C 77.104 77.182,76.692 77.279,76.417 77.400 M130.042 77.286 C 130.294 77.324,130.706 77.324,130.958 77.286 C 131.210 77.248,131.004 77.217,130.500 77.217 C 129.996 77.217,129.790 77.248,130.042 77.286 M132.580 77.624 C 133.361 77.664,133.853 77.777,134.080 77.967 C 134.415 78.248,134.415 78.248,134.099 77.875 C 133.819 77.544,133.642 77.504,132.599 77.533 L 131.417 77.565 132.580 77.624 M129.375 79.615 C 129.535 79.657,129.798 79.657,129.958 79.615 C 130.119 79.573,129.987 79.539,129.667 79.539 C 129.346 79.539,129.215 79.573,129.375 79.615 M122.583 80.000 C 122.527 80.092,122.129 80.169,121.698 80.172 C 121.268 80.175,120.771 80.287,120.593 80.422 C 120.415 80.557,120.355 80.667,120.458 80.667 C 120.562 80.667,120.693 80.592,120.750 80.500 C 120.807 80.408,121.209 80.333,121.643 80.333 C 122.078 80.333,122.506 80.260,122.596 80.171 C 122.685 80.081,124.069 79.986,125.671 79.958 L 128.583 79.908 125.635 79.871 C 123.807 79.848,122.647 79.897,122.583 80.000 M97.417 80.106 C 98.555 80.224,101.455 80.241,101.276 80.128 C 101.170 80.060,100.146 80.016,99.000 80.029 C 97.854 80.042,97.142 80.077,97.417 80.106 M105.250 82.000 C 105.608 82.367,105.938 82.667,105.984 82.667 C 106.030 82.667,105.775 82.367,105.417 82.000 C 105.059 81.633,104.728 81.333,104.682 81.333 C 104.637 81.333,104.892 81.633,105.250 82.000 M113.162 84.958 L 112.083 86.083 113.208 85.005 C 113.827 84.412,114.333 83.905,114.333 83.880 C 114.333 83.757,114.164 83.913,113.162 84.958 M107.057 86.917 C 107.058 87.650,107.087 87.929,107.122 87.537 C 107.157 87.145,107.157 86.545,107.121 86.204 C 107.085 85.863,107.057 86.183,107.057 86.917 M106.513 90.615 C 106.506 90.816,106.425 91.027,106.333 91.083 C 106.242 91.140,106.177 91.426,106.189 91.718 C 106.208 92.160,106.224 92.179,106.280 91.833 C 106.317 91.604,106.428 91.255,106.526 91.058 C 106.625 90.861,106.665 90.598,106.616 90.475 C 106.564 90.345,106.521 90.405,106.513 90.615 " stroke="none" fill="#7c4c6f" fill-rule="evenodd"></path><path id="path4" d="M84.190 36.286 C 84.067 36.505,83.804 36.571,83.057 36.569 C 82.442 36.568,81.995 36.654,81.845 36.802 C 81.688 36.956,81.392 37.007,80.976 36.951 C 80.551 36.894,80.356 36.929,80.381 37.058 C 80.404 37.180,80.189 37.237,79.792 37.213 C 79.336 37.187,79.167 37.243,79.167 37.422 C 79.167 37.566,79.010 37.667,78.787 37.667 C 78.578 37.667,78.247 37.779,78.051 37.917 C 77.854 38.054,77.575 38.121,77.430 38.065 C 77.285 38.010,77.167 38.033,77.167 38.117 C 77.167 38.201,76.848 38.402,76.458 38.565 C 75.205 39.087,74.271 39.558,73.372 40.119 C 72.889 40.420,72.420 40.667,72.330 40.667 C 72.240 40.667,72.167 40.742,72.167 40.833 C 72.167 40.925,72.086 41.000,71.988 41.000 C 71.259 41.000,66.969 44.851,64.972 47.298 C 63.707 48.848,60.833 53.771,60.833 54.388 C 60.833 55.199,59.732 56.344,59.427 55.850 C 59.257 55.575,56.188 54.167,55.758 54.167 C 55.524 54.167,55.333 54.073,55.333 53.958 C 55.333 53.808,55.004 53.759,54.158 53.782 C 53.265 53.806,52.960 53.756,52.890 53.574 C 52.774 53.272,51.227 53.235,51.128 53.532 C 51.086 53.660,50.635 53.734,49.864 53.740 C 48.973 53.748,48.667 53.808,48.667 53.976 C 48.667 54.138,48.483 54.184,48.020 54.140 C 47.574 54.097,47.397 54.139,47.449 54.274 C 47.490 54.382,47.350 54.524,47.137 54.591 C 45.312 55.163,41.167 58.377,41.167 59.220 C 41.167 59.314,41.060 59.509,40.929 59.654 C 40.551 60.073,39.667 61.838,39.667 62.174 C 39.667 62.342,39.592 62.527,39.500 62.583 C 39.408 62.640,39.332 62.851,39.331 63.052 C 39.329 63.252,39.221 63.717,39.090 64.083 C 38.871 64.696,38.830 68.391,39.027 69.833 C 39.083 70.247,39.074 70.250,37.803 70.242 C 36.999 70.237,36.534 70.299,36.553 70.409 C 36.571 70.513,36.230 70.580,35.708 70.576 C 35.104 70.571,34.833 70.635,34.833 70.783 C 34.833 70.903,34.541 71.043,34.163 71.103 C 33.794 71.162,33.452 71.276,33.403 71.355 C 33.354 71.435,33.131 71.500,32.907 71.500 C 32.683 71.500,32.500 71.575,32.500 71.667 C 32.500 71.758,32.313 71.833,32.083 71.833 C 31.854 71.833,31.667 71.917,31.667 72.019 C 31.667 72.123,31.520 72.167,31.333 72.118 C 31.150 72.070,31.000 72.089,31.000 72.161 C 31.000 72.232,30.306 72.727,29.458 73.261 C 27.308 74.614,25.035 76.850,23.812 78.815 C 23.176 79.836,22.333 81.377,22.333 81.518 C 22.333 81.602,22.267 81.801,22.186 81.961 C 20.979 84.333,20.308 91.499,21.209 92.399 C 21.605 92.795,105.833 92.813,105.833 92.417 C 105.833 92.279,105.901 92.167,105.984 92.167 C 106.067 92.167,106.096 92.016,106.048 91.832 C 106.000 91.649,106.062 91.376,106.187 91.226 C 106.311 91.076,106.388 90.768,106.359 90.541 C 106.324 90.277,106.370 90.169,106.486 90.241 C 106.593 90.307,106.667 90.217,106.667 90.020 C 106.667 89.836,106.742 89.640,106.833 89.583 C 106.932 89.522,107.000 88.474,107.000 87.000 C 107.000 85.526,106.932 84.478,106.833 84.417 C 106.742 84.360,106.666 84.149,106.664 83.948 C 106.662 83.652,106.631 83.630,106.500 83.833 C 106.369 84.035,106.338 84.012,106.336 83.708 C 106.334 83.502,106.255 83.333,106.159 83.333 C 106.064 83.333,106.007 83.202,106.034 83.042 C 106.062 82.879,105.991 82.768,105.875 82.792 C 105.760 82.815,105.667 82.732,105.667 82.609 C 105.667 82.340,105.102 81.798,104.945 81.916 C 104.883 81.962,104.870 81.951,104.915 81.890 C 105.052 81.708,104.647 81.333,104.313 81.333 C 104.141 81.333,104.000 81.258,104.000 81.167 C 104.000 81.075,103.794 80.999,103.542 80.997 C 103.185 80.995,103.139 80.959,103.333 80.833 C 103.577 80.676,102.993 80.571,102.358 80.658 C 102.234 80.675,102.179 80.615,102.234 80.525 C 102.410 80.242,100.263 80.172,88.833 80.093 C 75.521 80.000,74.632 79.889,75.352 78.419 C 75.921 77.257,75.912 77.259,82.220 77.167 L 87.917 77.085 83.167 76.984 C 79.246 76.901,79.589 76.892,85.133 76.933 C 92.987 76.990,102.639 76.822,101.917 76.640 C 101.545 76.547,101.641 76.527,102.290 76.566 C 102.786 76.595,103.290 76.530,103.456 76.416 C 103.752 76.212,104.906 75.918,105.292 75.947 C 105.406 75.956,105.500 75.896,105.500 75.815 C 105.500 75.733,105.617 75.667,105.760 75.667 C 105.916 75.667,105.971 75.589,105.899 75.472 C 105.821 75.345,105.866 75.310,106.029 75.373 C 106.309 75.480,107.333 75.040,107.333 74.813 C 107.333 74.732,107.480 74.667,107.658 74.667 C 107.837 74.667,108.043 74.560,108.117 74.430 C 108.190 74.300,108.362 74.169,108.500 74.138 C 108.638 74.108,108.795 73.971,108.850 73.833 C 108.905 73.696,109.055 73.580,109.183 73.576 C 109.312 73.572,109.392 73.459,109.361 73.326 C 109.331 73.192,109.364 73.142,109.436 73.213 C 109.612 73.390,112.010 70.988,111.882 70.762 C 111.826 70.664,111.841 70.639,111.916 70.707 C 112.103 70.876,112.500 70.521,112.500 70.186 C 112.500 70.035,112.688 69.772,112.917 69.600 C 113.146 69.427,113.333 69.193,113.333 69.079 C 113.333 68.694,113.792 67.962,113.886 68.197 C 113.944 68.341,113.978 68.316,113.987 68.123 C 113.994 67.961,114.066 67.699,114.147 67.539 C 114.419 67.005,114.628 66.423,114.925 65.373 C 115.088 64.799,115.313 64.252,115.426 64.159 C 115.540 64.065,115.591 63.829,115.540 63.634 C 115.477 63.393,115.509 63.319,115.640 63.400 C 115.772 63.481,115.834 63.343,115.836 62.968 C 115.838 62.551,115.878 62.477,116.000 62.667 C 116.126 62.861,116.162 62.815,116.164 62.458 C 116.166 62.206,116.245 62.000,116.341 62.000 C 116.436 62.000,116.497 61.906,116.476 61.792 C 116.410 61.435,116.677 60.532,116.905 60.343 C 117.245 60.061,116.864 57.624,116.324 56.627 C 116.237 56.468,116.167 56.223,116.167 56.083 C 116.167 55.943,116.092 55.680,116.000 55.498 C 115.908 55.316,115.758 55.018,115.667 54.836 C 115.575 54.654,115.500 54.423,115.500 54.322 C 115.500 54.222,115.174 53.490,114.776 52.695 C 112.382 47.913,109.349 44.392,105.024 41.372 C 104.332 40.890,103.711 40.404,103.642 40.294 C 103.574 40.183,103.468 40.143,103.407 40.204 C 103.347 40.265,103.024 40.145,102.690 39.938 C 101.946 39.478,99.912 38.500,99.698 38.500 C 99.611 38.500,99.448 38.388,99.335 38.252 C 99.222 38.115,99.064 38.044,98.985 38.093 C 98.781 38.219,98.138 37.848,98.249 37.668 C 98.300 37.586,98.080 37.562,97.754 37.615 C 97.291 37.690,97.167 37.655,97.167 37.449 C 97.167 37.243,97.042 37.208,96.583 37.282 C 96.148 37.353,96.000 37.317,96.000 37.142 C 96.000 36.971,95.828 36.924,95.360 36.969 C 94.976 37.005,94.626 36.941,94.485 36.807 C 94.347 36.676,93.853 36.580,93.292 36.575 C 92.560 36.568,92.282 36.493,92.110 36.258 C 91.986 36.088,91.842 36.017,91.791 36.100 C 91.685 36.272,84.897 36.286,84.725 36.114 C 84.537 35.926,84.359 35.984,84.190 36.286 M130.544 79.620 C 130.797 79.658,131.172 79.657,131.377 79.617 C 131.582 79.578,131.375 79.546,130.917 79.548 C 130.458 79.549,130.291 79.581,130.544 79.620 " stroke="none" fill="#552874" fill-rule="evenodd"></path></g></svg>